<svg width="22" height="22" viewBox="0 0 22 22" fill="none" xmlns="http://www.w3.org/2000/svg">
<g clip-path="url(#clip0_998_7937)">
<path d="M5.79342 1.16576C7.6251 0.229268 9.6891 -0.155827 11.7352 0.0571464C11.9982 0.0844685 12.2396 0.215147 12.4063 0.420434C12.5729 0.625721 12.6512 0.888801 12.6239 1.1518C12.5965 1.4148 12.4659 1.65617 12.2606 1.82282C12.0553 1.98946 11.7922 2.06774 11.5292 2.04041C9.86661 1.86749 8.18955 2.18056 6.70131 2.94166L6.40621 3.09851C4.9487 3.91649 3.75971 5.13965 2.98334 6.61974L2.83447 6.91883C2.06656 8.53064 1.81683 10.3408 2.1196 12.1003C2.42238 13.8598 3.2628 15.4823 4.52529 16.7448L4.76456 16.9761C5.9916 18.1119 7.52187 18.8674 9.16976 19.1507L9.49941 19.1999C11.1567 19.4195 12.8421 19.1535 14.3512 18.4343L14.649 18.2854C16.1797 17.4823 17.4343 16.2385 18.2507 14.7148C19.0671 13.191 19.4076 11.4575 19.2283 9.7382L20.22 9.63585L21.2116 9.53217C21.432 11.648 21.0128 13.7814 20.008 15.6565C19.0033 17.5316 17.4593 19.0623 15.5755 20.0507L15.2086 20.2341C13.3513 21.1193 11.2772 21.4466 9.23755 21.1766L8.83079 21.1141C6.80368 20.7655 4.92118 19.8364 3.41137 18.4396L3.11627 18.1551C1.56206 16.6016 0.527314 14.6047 0.154316 12.4391C-0.218682 10.2734 0.0883906 8.04544 1.03331 6.06145L1.21808 5.69457C2.17395 3.87292 3.63767 2.36764 5.43185 1.36116L5.79342 1.16576ZM16.2441 0.292427C16.3835 0.153177 16.5611 0.0583681 16.7544 0.019973C16.9477 -0.0184221 17.148 0.00131931 17.33 0.0767039C17.5121 0.152089 17.6677 0.279735 17.7773 0.443521C17.8868 0.607308 17.9454 0.799888 17.9456 0.996939V3.32316H20.2718L20.4207 3.33645C20.5903 3.36231 20.7504 3.43151 20.8854 3.53736C21.0205 3.64322 21.1259 3.78213 21.1916 3.94067C21.2572 4.09921 21.2808 4.272 21.2601 4.44233C21.2394 4.61266 21.1751 4.77477 21.0733 4.91296L20.9763 5.02595L16.9885 9.01375C16.8017 9.20077 16.5483 9.30596 16.284 9.30619H15.7789C15.9376 9.91475 15.9871 10.5466 15.9251 11.1725L15.8666 11.5779C15.6844 12.5892 15.213 13.526 14.5095 14.275C13.806 15.024 12.9006 15.5531 11.9027 15.7983L11.5 15.8807C10.555 16.0365 9.58547 15.9341 8.69388 15.5843L8.3177 15.4208C7.45532 15.0031 6.72185 14.3601 6.19485 13.5598L5.98217 13.2089C5.45067 12.249 5.22919 11.1481 5.34811 10.0572L5.40926 9.65047C5.58679 8.70922 6.01528 7.8334 6.64946 7.11556L6.9326 6.8178C7.62007 6.15136 8.47474 5.68292 9.40637 5.46195L9.50739 5.44201C9.76175 5.40699 10.0198 5.47146 10.2278 5.62198C10.4358 5.7725 10.5777 5.99747 10.624 6.25002C10.6703 6.50257 10.6173 6.76323 10.4761 6.97771C10.335 7.19219 10.1165 7.34394 9.86629 7.40135L9.62038 7.46914C9.1327 7.62558 8.68778 7.89263 8.32035 8.24942L8.14356 8.43419C7.74478 8.88348 7.47893 9.43247 7.3686 10.0187L7.33005 10.2739C7.25564 10.9557 7.39401 11.6438 7.72617 12.2439L7.8591 12.4632C8.18861 12.9629 8.64695 13.3643 9.18571 13.625L9.42099 13.7287C9.97841 13.9477 10.5847 14.012 11.1756 13.9148L11.4269 13.8616C12.0505 13.7084 12.6164 13.3778 13.0562 12.9098C13.4959 12.4417 13.7906 11.8563 13.9046 11.2243L13.9405 10.9718C13.9981 10.4029 13.9079 9.82871 13.6786 9.30486H13.3729L11.3391 11.3386C11.2479 11.4366 11.1378 11.5152 11.0155 11.5696C10.8932 11.6241 10.7612 11.6534 10.6273 11.6558C10.4935 11.6582 10.3605 11.6335 10.2364 11.5834C10.1122 11.5332 9.99946 11.4586 9.90479 11.3639C9.81012 11.2693 9.73549 11.1565 9.68535 11.0324C9.63521 10.9082 9.61058 10.7753 9.61295 10.6414C9.61531 10.5076 9.64461 10.3755 9.6991 10.2532C9.75358 10.131 9.83215 10.0209 9.9301 9.92962L11.9639 7.89584V4.98474C11.9639 4.72022 12.0689 4.46633 12.2563 4.28023L16.2441 0.292427ZM20.1163 8.64422C20.2465 8.63059 20.3781 8.64275 20.5037 8.68C20.6292 8.71725 20.7461 8.77886 20.8479 8.86132C20.9496 8.94377 21.034 9.04546 21.0965 9.16056C21.1589 9.27567 21.198 9.40194 21.2116 9.53217L19.2283 9.7382C19.2012 9.47542 19.2794 9.2126 19.4459 9.00748C19.6124 8.80235 19.8535 8.6717 20.1163 8.64422ZM13.9578 5.39814V7.31096H15.8719L17.8658 5.31706H15.9517V3.40291L13.9578 5.39814Z" fill="#E89240"/>
</g>
<defs>
<clipPath id="clip0_998_7937">
<rect width="21.2683" height="21.2683" fill="white"/>
</clipPath>
</defs>
</svg>
