<svg width="24" height="24" viewBox="0 0 24 24" fill="none" xmlns="http://www.w3.org/2000/svg">
<path d="M11.6465 13.1028C10.9266 13.1028 10.223 12.8894 9.62441 12.4894C9.02587 12.0895 8.55937 11.5211 8.28389 10.856C8.00841 10.1909 7.93634 9.45911 8.07677 8.75309C8.21721 8.04706 8.56385 7.39854 9.07287 6.88952C9.58189 6.3805 10.2304 6.03386 10.9364 5.89342C11.6425 5.75299 12.3743 5.82506 13.0393 6.10054C13.7044 6.37602 14.2728 6.84252 14.6728 7.44106C15.0727 8.0396 15.2862 8.74329 15.2862 9.46315C15.285 10.4281 14.9012 11.3532 14.2189 12.0355C13.5365 12.7178 12.6114 13.1017 11.6465 13.1028ZM11.6465 7.27935C11.2146 7.27935 10.7924 7.40743 10.4332 7.64739C10.0741 7.88735 9.79422 8.22841 9.62893 8.62745C9.46365 9.02648 9.4204 9.46557 9.50466 9.88919C9.58893 10.3128 9.79691 10.7019 10.1023 11.0073C10.4077 11.3127 10.7968 11.5207 11.2205 11.605C11.6441 11.6892 12.0832 11.646 12.4822 11.4807C12.8812 11.3154 13.2223 11.0355 13.4623 10.6764C13.7022 10.3173 13.8303 9.89506 13.8303 9.46315C13.8297 8.88415 13.5995 8.32903 13.19 7.91961C12.7806 7.51019 12.2255 7.27993 11.6465 7.27935Z" fill="#E89240"/>
<path d="M11.6469 21.838L5.50607 14.5958C5.42074 14.487 5.3363 14.3776 5.25275 14.2675C4.20432 12.8854 3.6377 11.1979 3.63965 9.46313C3.63965 7.33947 4.48327 5.30279 5.98492 3.80114C7.48658 2.29949 9.52325 1.45587 11.6469 1.45587C13.7706 1.45587 15.8072 2.29949 17.3089 3.80114C18.8105 5.30279 19.6542 7.33947 19.6542 9.46313C19.6559 11.197 19.0895 12.8837 18.0418 14.2653L18.0411 14.2675C18.0411 14.2675 17.8227 14.5543 17.7899 14.5929L11.6469 21.838ZM6.41526 13.3903C6.41526 13.3903 6.58487 13.6145 6.62345 13.6626L11.6469 19.5872L16.6769 13.6546C16.709 13.6145 16.8793 13.3889 16.88 13.3881C17.7369 12.2592 18.2 10.8804 18.1983 9.46313C18.1983 7.72559 17.5081 6.05922 16.2794 4.83059C15.0508 3.60197 13.3844 2.91174 11.6469 2.91174C9.90937 2.91174 8.243 3.60197 7.01438 4.83059C5.78575 6.05922 5.09552 7.72559 5.09552 9.46313C5.09372 10.8814 5.55735 12.261 6.41526 13.3903Z" fill="#E89240"/>
</svg>
