<svg width="24" height="20" viewBox="0 0 24 20" fill="none" xmlns="http://www.w3.org/2000/svg">
<path fill-rule="evenodd" clip-rule="evenodd" d="M13.2 0C13.4939 4.03882e-05 13.7776 0.112445 13.9972 0.315894C14.2169 0.519343 14.3572 0.799686 14.3916 1.10375L14.4 1.25C14.4003 1.5686 14.5175 1.87504 14.7274 2.10671C14.9374 2.33838 15.2243 2.47779 15.5297 2.49646C15.835 2.51514 16.1357 2.41166 16.3702 2.20717C16.6047 2.00268 16.7555 1.71262 16.7916 1.39625L16.8 1.25C16.8 0.918479 16.9264 0.600537 17.1515 0.366117C17.3765 0.131696 17.6817 0 18 0H20.4C21.3548 0 22.2705 0.395088 22.9456 1.09835C23.6207 1.80161 24 2.75544 24 3.75V16.25C24 17.2446 23.6207 18.1984 22.9456 18.9017C22.2705 19.6049 21.3548 20 20.4 20H18C17.7061 20 17.4224 19.8876 17.2028 19.6841C16.9831 19.4807 16.8428 19.2003 16.8084 18.8963L16.8 18.75C16.7997 18.4314 16.6825 18.125 16.4726 17.8933C16.2626 17.6616 15.9757 17.5222 15.6703 17.5035C15.365 17.4849 15.0643 17.5883 14.8298 17.7928C14.5953 17.9973 14.4445 18.2874 14.4084 18.6037L14.4 18.75C14.4 19.0815 14.2736 19.3995 14.0485 19.6339C13.8235 19.8683 13.5183 20 13.2 20H3.6C2.64522 20 1.72955 19.6049 1.05442 18.9017C0.379285 18.1984 0 17.2446 0 16.25V3.75C0 2.75544 0.379285 1.80161 1.05442 1.09835C1.72955 0.395088 2.64522 0 3.6 0H13.2ZM15.6 11.25C15.2817 11.25 14.9765 11.3817 14.7515 11.6161C14.5264 11.8505 14.4 12.1685 14.4 12.5V13.75C14.4 14.0815 14.5264 14.3995 14.7515 14.6339C14.9765 14.8683 15.2817 15 15.6 15C15.9183 15 16.2235 14.8683 16.4485 14.6339C16.6736 14.3995 16.8 14.0815 16.8 13.75V12.5C16.8 12.1685 16.6736 11.8505 16.4485 11.6161C16.2235 11.3817 15.9183 11.25 15.6 11.25ZM15.6 5C15.3061 5.00004 15.0224 5.11244 14.8028 5.31589C14.5831 5.51934 14.4428 5.79969 14.4084 6.10375L14.4 6.25V7.5C14.4003 7.8186 14.5175 8.12504 14.7274 8.35671C14.9374 8.58838 15.2243 8.72779 15.5297 8.74647C15.835 8.76514 16.1357 8.66166 16.3702 8.45717C16.6047 8.25268 16.7555 7.96262 16.7916 7.64625L16.8 7.5V6.25C16.8 5.91848 16.6736 5.60054 16.4485 5.36612C16.2235 5.1317 15.9183 5 15.6 5Z" fill="#1A1A1A"/>
</svg>
