<svg width="27" height="27" viewBox="0 0 27 27" fill="none" xmlns="http://www.w3.org/2000/svg">
<path d="M13.5 8.24963C13.5 6.1875 11.8125 4.5 9.75037 4.5H2.25V18H9.7965C13.5 18 13.5 21.7507 13.5 21.7507M13.5 8.24963C13.5 6.18638 15.1875 4.5 17.2496 4.5H24.75V18H17.2496C13.5 18 13.5 21.7507 13.5 21.7507M13.5 8.24963V21.7507M15.6094 23.0153C15.8441 22.5291 16.2098 22.118 16.6653 21.8283C17.1208 21.5385 17.6481 21.3816 18.1879 21.375H23.625M11.3906 23.0153C11.1602 22.5258 10.7955 22.1118 10.3391 21.8215C9.88261 21.5311 9.35311 21.3763 8.81213 21.375H3.375" stroke="#E89240" stroke-width="1.5" stroke-miterlimit="10" stroke-linecap="round" stroke-linejoin="round"/>
</svg>
