<svg width="23" height="23" viewBox="0 0 23 23" fill="none" xmlns="http://www.w3.org/2000/svg">
<path d="M20.1223 13.6145L18.6971 12.396C18.7646 11.9826 18.7994 11.5605 18.7994 11.1384C18.7994 10.7162 18.7646 10.2941 18.6971 9.8807L20.1223 8.66221C20.2298 8.57018 20.3068 8.44761 20.3429 8.3108C20.379 8.17399 20.3727 8.02941 20.3247 7.8963L20.3051 7.83972C19.9128 6.74313 19.3252 5.72657 18.5709 4.83918L18.5317 4.79348C18.4402 4.68589 18.3183 4.60855 18.1819 4.57165C18.0456 4.53475 17.9013 4.54002 17.768 4.58678L15.999 5.21561C15.3462 4.68034 14.6173 4.25822 13.8297 3.9623L13.488 2.11279C13.4623 1.97363 13.3948 1.8456 13.2945 1.74572C13.1942 1.64583 13.0659 1.57883 12.9267 1.55359L12.8679 1.54271C11.7343 1.33818 10.5419 1.33818 9.40826 1.54271L9.34951 1.55359C9.21025 1.57883 9.08196 1.64583 8.98169 1.74572C8.88141 1.8456 8.81391 1.97363 8.78813 2.11279L8.44434 3.971C7.66296 4.267 6.9353 4.68889 6.29022 5.21996L4.50817 4.58678C4.37493 4.53965 4.2305 4.53419 4.09409 4.57111C3.95767 4.60803 3.83571 4.68559 3.74443 4.79348L3.70527 4.83918C2.95185 5.7272 2.36442 6.74359 1.97109 7.83972L1.9515 7.8963C1.85359 8.16828 1.9341 8.47291 2.15386 8.66221L3.59647 9.89376C3.52902 10.3028 3.49638 10.7206 3.49638 11.1362C3.49638 11.554 3.52902 11.9717 3.59647 12.3786L2.15386 13.6102C2.04636 13.7022 1.96942 13.8248 1.93328 13.9616C1.89713 14.0984 1.90349 14.243 1.9515 14.3761L1.97109 14.4327C2.36492 15.5293 2.94806 16.5411 3.70527 17.4332L3.74443 17.4789C3.83594 17.5865 3.95789 17.6638 4.09423 17.7007C4.23057 17.7376 4.37489 17.7324 4.50817 17.6856L6.29022 17.0524C6.93863 17.5855 7.6632 18.0076 8.44434 18.3014L8.78813 20.1596C8.81391 20.2987 8.88141 20.4268 8.98169 20.5267C9.08196 20.6265 9.21025 20.6936 9.34951 20.7188L9.40826 20.7297C10.5523 20.9353 11.7239 20.9353 12.8679 20.7297L12.9267 20.7188C13.0659 20.6936 13.1942 20.6265 13.2945 20.5267C13.3948 20.4268 13.4623 20.2987 13.488 20.1596L13.8297 18.3101C14.617 18.0149 15.35 17.5914 15.999 17.0568L17.768 17.6856C17.9012 17.7327 18.0457 17.7382 18.1821 17.7013C18.3185 17.6643 18.4405 17.5868 18.5317 17.4789L18.5709 17.4332C19.3281 16.5389 19.9113 15.5293 20.3051 14.4327L20.3247 14.3761C20.4226 14.1084 20.3421 13.8038 20.1223 13.6145ZM17.1522 10.1375C17.2066 10.466 17.2349 10.8033 17.2349 11.1405C17.2349 11.4778 17.2066 11.8151 17.1522 12.1436L17.0086 13.0162L18.634 14.4065C18.3876 14.9742 18.0766 15.5116 17.7071 16.008L15.6879 15.2921L15.0046 15.8535C14.4846 16.28 13.9058 16.6151 13.2792 16.8501L12.4501 17.1612L12.0607 19.2718C11.4461 19.3414 10.8257 19.3414 10.2112 19.2718L9.82168 17.1569L8.99919 16.8414C8.37907 16.6064 7.80246 16.2713 7.28677 15.847L6.60354 15.2834L4.57127 16.0058C4.20137 15.5075 3.89239 14.9701 3.64434 14.4044L5.28713 13.0009L5.1457 12.1306C5.09348 11.8064 5.06519 11.4713 5.06519 11.1405C5.06519 10.8076 5.0913 10.4747 5.1457 10.1505L5.28713 9.28016L3.64434 7.87671C3.89022 7.30881 4.20137 6.77354 4.57127 6.27526L6.60354 6.99766L7.28677 6.4341C7.80246 6.0098 8.37907 5.67472 8.99919 5.43972L9.82385 5.12857L10.2133 3.01361C10.8248 2.94398 11.4492 2.94398 12.0628 3.01361L12.4523 5.12422L13.2813 5.43537C13.9058 5.67037 14.4868 6.00545 15.0068 6.43193L15.69 6.9933L17.7093 6.27744C18.0792 6.77572 18.3881 7.31316 18.6362 7.87889L17.0108 9.26928L17.1522 10.1375ZM11.1403 7.09339C9.0253 7.09339 7.31071 8.80799 7.31071 10.923C7.31071 13.0379 9.0253 14.7525 11.1403 14.7525C13.2552 14.7525 14.9698 13.0379 14.9698 10.923C14.9698 8.80799 13.2552 7.09339 11.1403 7.09339ZM12.8636 12.6463C12.6375 12.8729 12.3689 13.0527 12.0732 13.1752C11.7774 13.2976 11.4604 13.3604 11.1403 13.3599C10.4897 13.3599 9.87825 13.1054 9.41696 12.6463C9.19029 12.4202 9.01054 12.1516 8.88806 11.8559C8.76557 11.5601 8.70277 11.2431 8.70327 10.923C8.70327 10.2724 8.95785 9.66094 9.41696 9.19965C9.87825 8.73836 10.4897 8.48596 11.1403 8.48596C11.7909 8.48596 12.4023 8.73836 12.8636 9.19965C13.0902 9.42568 13.27 9.69429 13.3925 9.99004C13.515 10.2858 13.5778 10.6028 13.5773 10.923C13.5773 11.5735 13.3227 12.185 12.8636 12.6463Z" fill="#E89240"/>
</svg>
