<svg width="48" height="48" viewBox="0 0 48 48" fill="none" xmlns="http://www.w3.org/2000/svg">
<path d="M35.0001 24C37.9174 24 40.7153 25.1589 42.7782 27.2218C44.8411 29.2847 46.0001 32.0826 46.0001 35C46.0001 37.9174 44.8411 40.7153 42.7782 42.7782C40.7153 44.8411 37.9174 46 35.0001 46C32.0827 46 29.2848 44.8411 27.2219 42.7782C25.159 40.7153 24.0001 37.9174 24.0001 35C24.0001 32.0826 25.159 29.2847 27.2219 27.2218C29.2848 25.1589 32.0827 24 35.0001 24ZM24.0461 28C22.707 30.0889 21.9968 32.5188 22.0001 35C22.0001 38.26 23.2001 41.24 25.1841 43.524C23.5934 43.844 21.8654 44.004 20.0001 44.004C13.1601 44.004 8.11206 41.858 5.02806 37.53C4.36431 36.598 4.00775 35.4822 4.00806 34.338V32.498C4.00859 31.3052 4.48265 30.1615 5.32608 29.318C6.1695 28.4746 7.31328 28.0005 8.50606 28H24.0461ZM29.7061 34.294C29.6147 34.1949 29.5042 34.1153 29.3813 34.0599C29.2584 34.0046 29.1255 33.9746 28.9908 33.9719C28.856 33.9693 28.722 33.9938 28.597 34.0442C28.472 34.0946 28.3584 34.1698 28.2631 34.2651C28.1679 34.3605 28.0929 34.4742 28.0427 34.5993C27.9925 34.7244 27.9681 34.8584 27.971 34.9932C27.9739 35.1279 28.004 35.2607 28.0595 35.3836C28.115 35.5064 28.1948 35.6168 28.2941 35.708L32.2941 39.708C32.4816 39.8955 32.7359 40.0008 33.0011 40.0008C33.2662 40.0008 33.5205 39.8955 33.7081 39.708L41.7081 31.708C41.8036 31.6158 41.8798 31.5054 41.9322 31.3834C41.9846 31.2614 42.0122 31.1302 42.0133 30.9974C42.0145 30.8646 41.9892 30.733 41.9389 30.6101C41.8886 30.4872 41.8143 30.3755 41.7205 30.2816C41.6266 30.1877 41.5149 30.1135 41.392 30.0632C41.2691 30.0129 41.1374 29.9876 41.0047 29.9888C40.8719 29.9899 40.7407 30.0175 40.6187 30.0699C40.4966 30.1223 40.3863 30.1985 40.2941 30.294L33.0001 37.586L29.7061 34.294ZM20.0001 4.01001C21.3133 4.01001 22.6136 4.26867 23.8269 4.77121C25.0401 5.27376 26.1425 6.01036 27.0711 6.93894C27.9997 7.86753 28.7363 8.96992 29.2389 10.1832C29.7414 11.3964 30.0001 12.6968 30.0001 14.01C30.0001 15.3232 29.7414 16.6236 29.2389 17.8368C28.7363 19.0501 27.9997 20.1525 27.0711 21.0811C26.1425 22.0097 25.0401 22.7463 23.8269 23.2488C22.6136 23.7514 21.3133 24.01 20.0001 24.01C17.3479 24.01 14.8044 22.9564 12.929 21.0811C11.0536 19.2057 10.0001 16.6622 10.0001 14.01C10.0001 11.3578 11.0536 8.81431 12.929 6.93894C14.8044 5.06358 17.3479 4.01001 20.0001 4.01001Z" fill="#C9C9C9"/>
</svg>
